<?xml version="1.0" encoding="UTF-8"?>
<svg version="1.1" xmlns="http://www.w3.org/2000/svg" width="33" height="31">
<path d="M0 0 C0.99 0.33 1.98 0.66 3 1 C2.67 3.31 2.34 5.62 2 8 C3.32 7.67 4.64 7.34 6 7 C6.66 4.69 7.32 2.38 8 0 C8.99 0.33 9.98 0.66 11 1 C10.67 3.31 10.34 5.62 10 8 C11.98 8 13.96 8 16 8 C16 8.99 16 9.98 16 11 C14.02 11.33 12.04 11.66 10 12 C9.67 13.32 9.34 14.64 9 16 C11.31 16 13.62 16 16 16 C16 16.99 16 17.98 16 19 C13.69 19.33 11.38 19.66 9 20 C8.67 22.31 8.34 24.62 8 27 C7.01 27 6.02 27 5 27 C5 24.36 5 21.72 5 19 C3.68 19.33 2.36 19.66 1 20 C0.67 22.31 0.34 24.62 0 27 C-0.99 27 -1.98 27 -3 27 C-3 24.36 -3 21.72 -3 19 C-4.98 19 -6.96 19 -9 19 C-8.505 17.515 -8.505 17.515 -8 16 C-6.02 16 -4.04 16 -2 16 C-2 14.35 -2 12.7 -2 11 C-4.31 11 -6.62 11 -9 11 C-8.67 10.01 -8.34 9.02 -8 8 C-6.02 7.67 -4.04 7.34 -2 7 C-1.34 4.69 -0.68 2.38 0 0 Z M2 11 C1.67 12.65 1.34 14.3 1 16 C2.65 16 4.3 16 6 16 C6 14.35 6 12.7 6 11 C4.68 11 3.36 11 2 11 Z " fill="#4D5361" transform="translate(14,3)"/>
</svg>
